<svg xmlns="http://www.w3.org/2000/svg" xmlns:xlink="http://www.w3.org/1999/xlink" width="500" zoomAndPan="magnify" viewBox="0 0 375 374.999991" height="500" preserveAspectRatio="xMidYMid meet" version="1.0"><defs><g/></defs><g fill="#000000" fill-opacity="1"><g transform="translate(103.879107, 223.299485)"><g><path d="M 89.199219 -1.703125 L 46.019531 -112.777344 C 45.59375 -113.910156 43.605469 -113.910156 43.179688 -112.777344 L 0.140625 -1.703125 C -0.285156 -0.851562 0.285156 0 1.5625 0 L 21.019531 0 C 21.589844 0 22.300781 -0.285156 22.441406 -0.851562 L 44.597656 -64.199219 L 67.039062 -0.851562 C 67.183594 -0.285156 67.894531 0 68.320312 0 L 87.917969 0 C 88.914062 0 89.625 -0.851562 89.199219 -1.703125 Z M 89.199219 -1.703125 "/></g></g></g><g fill="#000000" fill-opacity="1"><g transform="translate(188.268509, 273.282616)"><g><path d="M 59.230469 -92.464844 L 44.316406 -50.847656 L 22.15625 -112.777344 C 22.015625 -113.34375 21.449219 -113.628906 20.738281 -113.628906 L 1.421875 -113.628906 C 0.285156 -113.628906 -0.285156 -112.777344 0.140625 -111.921875 L 42.894531 -0.710938 C 43.460938 0.285156 45.167969 0.285156 45.59375 -0.710938 L 81.101562 -92.464844 Z M 59.230469 -92.464844 "/></g></g></g><g fill="#000000" fill-opacity="1"><g transform="translate(110.540988, 242.470369)"><g><path d="M 1.5625 0 L 0.125 0 L 4.09375 -10.03125 L 5.5 -10.03125 L 9.421875 0 L 7.984375 0 L 7.078125 -2.421875 L 2.484375 -2.421875 Z M 4.765625 -8.78125 C 4.660156 -8.40625 4.535156 -8.007812 4.390625 -7.59375 C 4.242188 -7.175781 4.097656 -6.765625 3.953125 -6.359375 L 2.921875 -3.609375 L 6.625 -3.609375 L 5.59375 -6.359375 C 5.382812 -6.941406 5.21875 -7.410156 5.09375 -7.765625 C 4.96875 -8.128906 4.859375 -8.46875 4.765625 -8.78125 Z M 4.765625 -8.78125 "/></g></g></g><g fill="#000000" fill-opacity="1"><g transform="translate(128.826677, 242.470369)"><g><path d="M 9.359375 -10.03125 L 9.359375 0 L 7.984375 0 L 2.4375 -7.8125 L 2.4375 0 L 1.15625 0 L 1.15625 -10.03125 L 2.53125 -10.03125 L 8.078125 -2.109375 L 8.078125 -10.03125 Z M 9.359375 -10.03125 "/></g></g></g><g fill="#000000" fill-opacity="1"><g transform="translate(148.056137, 242.470369)"><g><path d="M 7.515625 -4.109375 L 4.90625 -4.109375 L 4.90625 -5.3125 L 8.796875 -5.3125 L 8.796875 -0.484375 C 8.503906 -0.335938 7.972656 -0.195312 7.203125 -0.0625 C 6.429688 0.0625 5.734375 0.125 5.109375 0.125 C 3.453125 0.125 2.304688 -0.257812 1.671875 -1.03125 C 1.035156 -1.8125 0.71875 -3.144531 0.71875 -5.03125 C 0.71875 -6.800781 1.09375 -8.101562 1.84375 -8.9375 C 2.601562 -9.769531 3.796875 -10.1875 5.421875 -10.1875 C 5.972656 -10.1875 6.503906 -10.171875 7.015625 -10.140625 C 7.523438 -10.117188 7.9375 -10.082031 8.25 -10.03125 L 8.25 -8.828125 C 7.820312 -8.867188 7.359375 -8.898438 6.859375 -8.921875 C 6.367188 -8.941406 5.890625 -8.953125 5.421875 -8.953125 C 4.203125 -8.953125 3.34375 -8.65625 2.84375 -8.0625 C 2.351562 -7.46875 2.109375 -6.457031 2.109375 -5.03125 C 2.109375 -4.320312 2.148438 -3.726562 2.234375 -3.25 C 2.316406 -2.78125 2.445312 -2.398438 2.625 -2.109375 C 2.832031 -1.742188 3.132812 -1.484375 3.53125 -1.328125 C 3.925781 -1.179688 4.503906 -1.109375 5.265625 -1.109375 C 5.566406 -1.109375 5.914062 -1.128906 6.3125 -1.171875 C 6.71875 -1.222656 7.117188 -1.289062 7.515625 -1.375 Z M 7.515625 -4.109375 "/></g></g></g><g fill="#000000" fill-opacity="1"><g transform="translate(166.309829, 242.470369)"><g><path d="M 7.8125 -1.28125 L 7.8125 0 L 1.15625 0 L 1.15625 -10.03125 L 7.65625 -10.03125 L 7.65625 -8.796875 L 2.515625 -8.796875 L 2.515625 -5.734375 L 7.078125 -5.734375 L 7.078125 -4.53125 L 2.515625 -4.53125 L 2.515625 -1.28125 Z M 7.8125 -1.28125 "/></g></g></g><g fill="#000000" fill-opacity="1"><g transform="translate(183.3958, 242.470369)"><g><path d="M 7.296875 -1.28125 L 7.296875 0 L 1.15625 0 L 1.15625 -10.03125 L 2.515625 -10.03125 L 2.515625 -1.28125 Z M 7.296875 -1.28125 "/></g></g></g><g fill="#000000" fill-opacity="1"><g transform="translate(224.116778, 175.968197)"><g><path d="M 3.890625 0 L 0.125 -10.03125 L 1.625 -10.03125 L 3.9375 -3.6875 C 4.019531 -3.414062 4.125 -3.070312 4.25 -2.65625 C 4.382812 -2.25 4.539062 -1.722656 4.71875 -1.078125 C 4.851562 -1.585938 4.988281 -2.070312 5.125 -2.53125 C 5.257812 -2.988281 5.378906 -3.375 5.484375 -3.6875 L 7.78125 -10.03125 L 9.25 -10.03125 L 5.484375 0 Z M 3.890625 0 "/></g></g></g><g fill="#000000" fill-opacity="1"><g transform="translate(234.306529, 175.968197)"><g><path d="M 7.8125 -1.28125 L 7.8125 0 L 1.15625 0 L 1.15625 -10.03125 L 7.65625 -10.03125 L 7.65625 -8.796875 L 2.515625 -8.796875 L 2.515625 -5.734375 L 7.078125 -5.734375 L 7.078125 -4.53125 L 2.515625 -4.53125 L 2.515625 -1.28125 Z M 7.8125 -1.28125 "/></g></g></g><g fill="#000000" fill-opacity="1"><g transform="translate(243.488513, 175.968197)"><g><path d="M 5.03125 -4.203125 L 2.59375 -4.78125 C 1.914062 -4.945312 1.425781 -5.222656 1.125 -5.609375 C 0.832031 -5.992188 0.6875 -6.535156 0.6875 -7.234375 C 0.6875 -8.242188 0.976562 -8.988281 1.5625 -9.46875 C 2.144531 -9.945312 3.046875 -10.1875 4.265625 -10.1875 C 4.785156 -10.1875 5.25 -10.160156 5.65625 -10.109375 C 6.0625 -10.066406 6.441406 -10 6.796875 -9.90625 L 6.796875 -8.671875 C 6.347656 -8.773438 5.921875 -8.847656 5.515625 -8.890625 C 5.109375 -8.929688 4.6875 -8.953125 4.25 -8.953125 C 3.4375 -8.953125 2.863281 -8.832031 2.53125 -8.59375 C 2.195312 -8.351562 2.03125 -7.929688 2.03125 -7.328125 C 2.03125 -6.941406 2.109375 -6.648438 2.265625 -6.453125 C 2.421875 -6.253906 2.675781 -6.113281 3.03125 -6.03125 L 5.4375 -5.453125 C 6.289062 -5.253906 6.859375 -4.96875 7.140625 -4.59375 C 7.421875 -4.226562 7.5625 -3.660156 7.5625 -2.890625 C 7.5625 -1.796875 7.273438 -1.019531 6.703125 -0.5625 C 6.140625 -0.101562 5.238281 0.125 4 0.125 C 3.351562 0.125 2.726562 0.0820312 2.125 0 C 1.519531 -0.0820312 1.039062 -0.195312 0.6875 -0.34375 L 0.6875 -1.609375 C 1.1875 -1.460938 1.71875 -1.347656 2.28125 -1.265625 C 2.851562 -1.191406 3.425781 -1.15625 4 -1.15625 C 4.800781 -1.15625 5.359375 -1.269531 5.671875 -1.5 C 5.992188 -1.738281 6.15625 -2.191406 6.15625 -2.859375 C 6.15625 -3.273438 6.078125 -3.578125 5.921875 -3.765625 C 5.773438 -3.953125 5.476562 -4.097656 5.03125 -4.203125 Z M 5.03125 -4.203125 "/></g></g></g><g fill="#000000" fill-opacity="1"><g transform="translate(252.366577, 175.968197)"><g><path d="M 8.25 -10.03125 L 8.25 -8.796875 L 4.921875 -8.796875 L 4.921875 0 L 3.5625 0 L 3.5625 -8.796875 L 0.234375 -8.796875 L 0.234375 -10.03125 Z M 8.25 -10.03125 "/></g></g></g><g fill="#000000" fill-opacity="1"><g transform="translate(261.67654, 175.968197)"><g><path d="M 9.65625 -5.046875 C 9.65625 -3.210938 9.304688 -1.890625 8.609375 -1.078125 C 7.910156 -0.273438 6.773438 0.125 5.203125 0.125 C 3.503906 0.125 2.332031 -0.25 1.6875 -1 C 1.039062 -1.75 0.71875 -3.097656 0.71875 -5.046875 C 0.71875 -6.859375 1.066406 -8.164062 1.765625 -8.96875 C 2.472656 -9.78125 3.617188 -10.1875 5.203125 -10.1875 C 6.898438 -10.1875 8.066406 -9.8125 8.703125 -9.0625 C 9.335938 -8.3125 9.65625 -6.972656 9.65625 -5.046875 Z M 2.578125 -2.140625 C 2.773438 -1.773438 3.070312 -1.519531 3.46875 -1.375 C 3.863281 -1.226562 4.441406 -1.15625 5.203125 -1.15625 C 6.378906 -1.15625 7.1875 -1.4375 7.625 -2 C 8.0625 -2.570312 8.28125 -3.585938 8.28125 -5.046875 C 8.28125 -5.765625 8.242188 -6.351562 8.171875 -6.8125 C 8.097656 -7.28125 7.984375 -7.660156 7.828125 -7.953125 C 7.617188 -8.316406 7.320312 -8.570312 6.9375 -8.71875 C 6.550781 -8.875 5.972656 -8.953125 5.203125 -8.953125 C 4.003906 -8.953125 3.1875 -8.664062 2.75 -8.09375 C 2.3125 -7.519531 2.09375 -6.503906 2.09375 -5.046875 C 2.09375 -4.316406 2.128906 -3.71875 2.203125 -3.25 C 2.273438 -2.789062 2.398438 -2.421875 2.578125 -2.140625 Z M 2.578125 -2.140625 "/></g></g></g><g fill="#000000" fill-opacity="1"><g transform="translate(272.874048, 175.968197)"><g><path d="M 2.515625 -3.59375 L 2.515625 0 L 1.15625 0 L 1.15625 -10.03125 L 4.5625 -10.03125 C 5.976562 -10.03125 6.992188 -9.785156 7.609375 -9.296875 C 8.222656 -8.816406 8.53125 -8.015625 8.53125 -6.890625 C 8.53125 -6.015625 8.332031 -5.316406 7.9375 -4.796875 C 7.550781 -4.285156 6.960938 -3.941406 6.171875 -3.765625 L 8.796875 0 L 7.171875 0 L 4.734375 -3.59375 Z M 7.15625 -6.890625 C 7.15625 -7.578125 6.957031 -8.066406 6.5625 -8.359375 C 6.164062 -8.648438 5.5 -8.796875 4.5625 -8.796875 L 2.515625 -8.796875 L 2.515625 -4.796875 L 4.5625 -4.796875 C 5.476562 -4.796875 6.140625 -4.960938 6.546875 -5.296875 C 6.953125 -5.628906 7.15625 -6.160156 7.15625 -6.890625 Z M 7.15625 -6.890625 "/></g></g></g><g fill="#000000" fill-opacity="1"><g transform="translate(282.951817, 175.968197)"><g><path d="M 5.03125 -4.203125 L 2.59375 -4.78125 C 1.914062 -4.945312 1.425781 -5.222656 1.125 -5.609375 C 0.832031 -5.992188 0.6875 -6.535156 0.6875 -7.234375 C 0.6875 -8.242188 0.976562 -8.988281 1.5625 -9.46875 C 2.144531 -9.945312 3.046875 -10.1875 4.265625 -10.1875 C 4.785156 -10.1875 5.25 -10.160156 5.65625 -10.109375 C 6.0625 -10.066406 6.441406 -10 6.796875 -9.90625 L 6.796875 -8.671875 C 6.347656 -8.773438 5.921875 -8.847656 5.515625 -8.890625 C 5.109375 -8.929688 4.6875 -8.953125 4.25 -8.953125 C 3.4375 -8.953125 2.863281 -8.832031 2.53125 -8.59375 C 2.195312 -8.351562 2.03125 -7.929688 2.03125 -7.328125 C 2.03125 -6.941406 2.109375 -6.648438 2.265625 -6.453125 C 2.421875 -6.253906 2.675781 -6.113281 3.03125 -6.03125 L 5.4375 -5.453125 C 6.289062 -5.253906 6.859375 -4.96875 7.140625 -4.59375 C 7.421875 -4.226562 7.5625 -3.660156 7.5625 -2.890625 C 7.5625 -1.796875 7.273438 -1.019531 6.703125 -0.5625 C 6.140625 -0.101562 5.238281 0.125 4 0.125 C 3.351562 0.125 2.726562 0.0820312 2.125 0 C 1.519531 -0.0820312 1.039062 -0.195312 0.6875 -0.34375 L 0.6875 -1.609375 C 1.1875 -1.460938 1.71875 -1.347656 2.28125 -1.265625 C 2.851562 -1.191406 3.425781 -1.15625 4 -1.15625 C 4.800781 -1.15625 5.359375 -1.269531 5.671875 -1.5 C 5.992188 -1.738281 6.15625 -2.191406 6.15625 -2.859375 C 6.15625 -3.273438 6.078125 -3.578125 5.921875 -3.765625 C 5.773438 -3.953125 5.476562 -4.097656 5.03125 -4.203125 Z M 5.03125 -4.203125 "/></g></g></g></svg>